<svg xmlns="http://www.w3.org/2000/svg" width="88" height="19" fill="none" viewBox="0 0 88 19"><path fill="#000" d="M11.813 8.408c-.503-.482-1.016-.842-1.54-1.08a3.962 3.962 0 0 0-1.654-.355c-.9 0-1.627.279-2.178.838-.545.551-.817 1.288-.817 2.21 0 .9.262 1.62.785 2.157.524.537 1.226.806 2.105.806.53 0 1.068-.112 1.613-.335.551-.23 1.152-.593 1.801-1.09l-.178 5.771c-.6.245-1.2.426-1.801.545a9.129 9.129 0 0 1-3.959-.063 7.574 7.574 0 0 1-1.874-.712c-1.355-.782-2.381-1.77-3.08-2.964C.347 12.942 0 11.57 0 10.02c0-1.145.195-2.206.586-3.183A7.686 7.686 0 0 1 2.314 4.25a7.573 7.573 0 0 1 2.64-1.707c1.005-.391 2.09-.587 3.256-.587a8.47 8.47 0 0 1 1.833.2 8.457 8.457 0 0 1 1.77.575v5.677zM19.531 12.083h2.294l-.471-1.738a27.64 27.64 0 0 1-.472-2.032 10.846 10.846 0 0 1-.157-1.34h-.094c-.021.419-.073.866-.157 1.34a27.6 27.6 0 0 1-.471 2.032l-.472 1.738zm-7.31 5.572l5.467-15.332h6.137l5.362 15.332H23.26l-.493-1.927H18.61l-.471 1.927h-5.917zM35.45 6.271v2.995h.858c.524 0 .925-.125 1.205-.377.286-.258.43-.625.43-1.1 0-.488-.144-.862-.43-1.12-.28-.265-.681-.398-1.205-.398h-.858zm-5.404 11.384V2.323h6.933c2.01 0 3.546.443 4.608 1.33 1.06.887 1.591 2.164 1.591 3.833 0 1.09-.268 1.986-.806 2.691-.53.706-1.25 1.117-2.157 1.236l4.094 6.242h-6.178l-2.681-5.059v5.059h-5.404z"/><path fill="#000" stroke="#000" stroke-miterlimit="10" d="M53.604 18.023h-4.078c-.551 0-1.047-.22-1.433-.606a2.001 2.001 0 0 1-.606-1.433V9.59h-2.921l1.763-1.764h1.158V5.788l2.039-2.039v4.078h4.078v1.764h-4.078v6.668h4.078v1.764zM65.453 18.023H57.35c-.55 0-1.047-.22-1.432-.607a2.002 2.002 0 0 1-.607-1.432V9.866c0-.55.22-1.047.607-1.433a2.001 2.001 0 0 1 1.432-.606h6.118c.55 0 1.047.22 1.433.606.385.386.606.882.606 1.433v2.04l-2.04 2.038h-5.786l1.764-1.763h4.078V9.59h-6.117v6.668h8.1v1.764h-.054zM76.2 7.882l-1.764 1.764H69.53v6.668h6.117v1.764h-6.117c-.551 0-1.047-.22-1.433-.606a2.001 2.001 0 0 1-.606-1.433V9.922c0-.552.22-1.048.606-1.433a2.001 2.001 0 0 1 1.433-.607h6.668zM87.497 18.023h-2.039V9.59h-6.117v8.432h-1.984V3.253l2.039-2.04v8.102l1.433-1.433h4.63c.55 0 1.046.22 1.432.607.386.385.606.881.606 1.432v8.102z"/></svg>